<?xml version="1.0" standalone="no"?>
<!DOCTYPE svg PUBLIC "-//W3C//DTD SVG 20010904//EN"
 "http://www.w3.org/TR/2001/REC-SVG-20010904/DTD/svg10.dtd">
<svg version="1.0" xmlns="http://www.w3.org/2000/svg"
 width="1030.000000pt" height="1032.000000pt" viewBox="0 0 1030.000000 1032.000000"
 preserveAspectRatio="xMidYMid meet">

<g transform="translate(0.000000,1032.000000) scale(0.100000,-0.100000)"
fill="#000000" stroke="none">
<path d="M6550 9063 c-13 -5 -265 -150 -1370 -788 -113 -65 -466 -269 -785
-453 -319 -185 -665 -385 -770 -445 -449 -259 -450 -259 -456 -328 -9 -98 20
-126 286 -275 116 -65 260 -146 320 -180 61 -34 182 -103 270 -152 88 -49 160
-96 160 -103 0 -7 -13 -20 -30 -30 -16 -9 -228 -130 -470 -270 -242 -139 -451
-257 -466 -262 -22 -9 -53 6 -265 128 -314 182 -288 179 -501 58 -87 -50 -284
-161 -438 -248 -727 -410 -698 -391 -713 -449 -5 -17 -6 -355 -2 -751 7 -802
2 -757 77 -807 21 -14 130 -79 243 -143 113 -65 689 -397 1280 -738 1694 -978
1780 -1027 1819 -1035 66 -15 132 14 163 72 6 12 9 228 9 607 -1 324 0 589 2
589 3 0 56 -30 118 -66 63 -36 286 -165 497 -287 l382 -221 0 -287 c0 -158 4
-298 9 -311 15 -41 55 -71 222 -169 90 -53 331 -194 534 -314 540 -319 533
-315 585 -315 48 0 56 5 615 335 132 78 296 175 365 215 276 161 315 187 338
220 25 38 23 -73 22 1075 0 336 0 1114 0 1731 l0 1121 -23 34 c-28 42 -69 62
-123 62 -36 0 -85 -25 -355 -183 -173 -101 -350 -205 -394 -231 -44 -25 -127
-74 -185 -108 -91 -53 -106 -59 -112 -43 -3 9 -7 265 -7 568 -1 495 1 553 15
565 9 7 122 75 253 150 165 95 242 145 257 167 21 30 22 48 29 334 3 167 5
507 3 755 l-3 453 -30 29 c-16 17 -77 57 -135 89 -58 32 -312 176 -566 319
-594 336 -569 323 -618 322 -23 0 -48 -3 -56 -6z m420 -510 c107 -61 273 -154
368 -207 94 -54 172 -101 172 -105 0 -4 -19 -18 -42 -31 -24 -13 -189 -108
-368 -211 -179 -103 -331 -189 -338 -191 -10 -2 -13 80 -12 421 0 233 3 428 6
433 3 4 8 7 12 5 4 -3 95 -54 202 -114z m-519 -407 c-1 -280 -5 -513 -7 -520
-3 -6 -60 -42 -127 -80 -67 -39 -185 -106 -262 -151 -943 -547 -1518 -875
-1534 -875 -9 0 -154 78 -321 173 -168 95 -367 208 -442 251 -76 43 -138 81
-138 84 0 4 253 153 563 331 309 179 792 457 1072 619 912 526 1049 605 1115
643 36 21 69 37 74 35 6 -1 8 -207 7 -510z m1216 -363 c-4 -108 -7 -301 -7
-430 0 -204 -2 -233 -15 -233 -9 0 -156 79 -328 176 -172 97 -336 190 -365
206 -29 16 -50 33 -47 38 3 5 65 43 138 84 72 42 240 139 372 215 132 77 244
140 249 140 5 1 6 -79 3 -196z m-872 -530 c104 -59 282 -159 395 -223 113 -64
229 -130 257 -146 29 -16 52 -32 50 -36 -1 -4 -83 -54 -182 -111 -99 -57 -463
-267 -810 -467 -346 -200 -695 -401 -775 -447 -80 -46 -350 -202 -600 -346
-250 -145 -458 -262 -462 -260 -13 7 3 1026 16 1040 6 7 108 68 226 136 118
68 321 185 450 259 688 397 822 475 1015 586 116 67 214 122 220 122 5 0 95
-48 200 -107z m315 -1514 c0 -349 -3 -440 -12 -436 -43 16 -733 428 -733 436
0 6 74 55 165 108 91 53 215 126 275 161 61 36 151 89 200 118 50 29 93 53 98
54 4 0 7 -198 7 -441z m-2740 -88 c0 -258 -4 -432 -9 -436 -6 -3 -97 44 -203
104 -106 60 -271 153 -367 208 -96 54 -176 103 -178 108 -2 8 728 441 750 444
4 1 7 -192 7 -428z m-1838 -428 c3 -236 2 -432 -2 -436 -3 -4 -157 79 -341
186 -184 106 -353 204 -377 217 -23 13 -41 27 -40 32 3 8 738 428 749 428 4 0
9 -192 11 -427z m341 401 c18 -10 115 -65 217 -124 368 -213 1030 -596 1255
-726 127 -72 327 -188 445 -256 118 -68 362 -209 543 -313 180 -104 326 -193
324 -198 -1 -5 -205 -124 -452 -263 -414 -234 -450 -253 -470 -240 -11 7 -61
36 -110 64 -50 27 -144 81 -210 119 -66 39 -266 154 -445 258 -179 103 -413
238 -520 300 -107 62 -291 167 -407 235 l-213 122 0 391 c0 216 -3 449 -7 520
-7 139 -6 140 50 111z m3037 -725 c0 -602 -2 -680 -15 -675 -8 3 -255 144
-548 312 -292 169 -551 318 -575 332 -24 13 -42 28 -40 33 3 7 219 133 1028
600 74 43 138 78 143 79 4 0 7 -306 7 -681z m2397 -2696 c-4 -4 -73 36 -562
325 l-340 200 -2 1104 c-2 607 1 1108 5 1114 4 6 90 59 192 119 102 60 302
177 445 262 l260 153 3 -1637 c1 -900 0 -1638 -1 -1640z m-1660 3021 c230
-136 428 -253 441 -261 l22 -14 -2 -1111 -3 -1112 -245 -144 c-135 -80 -335
-198 -444 -263 -110 -65 -203 -116 -208 -113 -4 3 -7 738 -5 1635 1 1280 5
1629 14 1629 7 0 201 -111 430 -246z m-4694 -456 c183 -105 351 -202 374 -215
24 -14 45 -29 48 -33 3 -5 -14 -20 -37 -33 -76 -44 -520 -293 -617 -346 -51
-29 -95 -51 -96 -49 -7 7 -17 868 -11 868 5 0 157 -86 339 -192z m844 -484
c54 -32 283 -163 508 -294 226 -130 611 -352 856 -493 l446 -257 6 -368 c4
-202 7 -436 7 -521 0 -144 -1 -153 -18 -149 -10 3 -167 91 -348 195 -181 105
-608 352 -949 548 -341 197 -719 415 -840 485 -121 69 -325 187 -452 260 -128
74 -233 137 -233 140 0 3 166 98 368 212 202 115 401 228 442 252 41 24 83 45
92 45 10 1 61 -24 115 -55z m3033 -975 c0 -236 -3 -429 -7 -429 -5 0 -24 10
-43 22 -32 19 -566 328 -667 386 -24 13 -45 27 -47 31 -3 4 55 40 127 81 198
110 266 149 451 253 93 53 173 94 178 91 4 -3 8 -198 8 -435z m1280 -1369 c0
-242 -3 -440 -8 -440 -4 0 -64 33 -132 73 -69 40 -231 135 -360 211 -129 76
-239 142 -245 148 -7 7 -5 13 5 19 8 6 166 98 350 206 184 107 344 202 355
209 11 8 23 14 27 14 5 0 8 -198 8 -440z m705 205 c176 -102 326 -192 332
-198 10 -10 -66 -59 -357 -230 -204 -120 -375 -215 -380 -212 -11 7 -14 857
-3 868 3 4 25 -4 47 -17 23 -13 185 -108 361 -211z"/>
</g>
</svg>
